<svg width="888" height="704" viewBox="0 0 888 704" fill="none" xmlns="http://www.w3.org/2000/svg">
<path fill-rule="evenodd" clip-rule="evenodd" d="M594 259C586.365 273.928 578.298 288.46 570.153 303.116C565.841 310.875 551.935 342.966 548.343 344.192C544.476 345.512 520.784 331.58 513.984 328.851C501.902 324.001 490.42 319.408 477.799 316.418C463.667 313.068 449.422 310.6 434.763 311.845C428.343 312.391 417.715 313.943 424.096 304.923C428.748 298.346 433.254 292.289 439.572 287.538C444.17 284.078 450.911 277.734 456.295 275.424C461.944 272.999 470.275 273.536 476.345 273.679C482.909 273.834 514.19 283.595 515.911 273.422C519.101 276.325 520.96 275.202 524.615 276.62C528.736 278.218 531.305 281.32 535.397 283.193C538.052 284.41 542.946 289.216 545.897 289.245C549.82 289.284 550.877 286.035 553.694 283.637C560.005 278.263 568.41 274.727 575.259 270.057C581.289 265.944 587.031 261.657 594 259ZM525.276 141C524.74 147.815 526.579 154.147 526.535 161.16C526.515 164.22 526.377 167.278 527.305 170.226C528.14 172.869 527.557 177.616 528 180.384C520.194 178.008 505.691 174.484 497.721 177.688C490.101 180.751 489.143 194.918 488.875 201.808C488.692 206.505 490.777 213.74 489.196 218.236C488.459 220.333 488.453 221.01 488.499 221.199L488.505 221.219C488.355 221.142 487.743 221.143 485.585 222.699C483.446 224.242 480.893 225.092 478.779 226.795C474.935 229.897 474.276 233.411 472.379 237.906C470.536 242.272 465.627 246.152 460.147 245.994C464.552 238.01 470.668 230.554 467.158 221.177C464.51 214.099 469.152 205.793 472.803 199.07C474.012 196.843 487.413 179.784 481.475 178.582C477.619 177.8 468.768 195.908 467.075 199.07C462.352 195.877 460.231 191.941 463.865 187.132C466.658 183.439 470.085 180.281 472.803 176.457C477.215 170.25 481.515 162.842 486.755 157.329C495.959 147.649 512.025 141.059 525.276 141ZM488.505 221.219C488.555 221.254 488.535 221.289 488.512 221.236L488.505 221.219ZM648.96 130.423C654.841 136.057 662.28 140.73 667.963 146.643C672.938 151.819 679.637 160.526 682 167.441C669.874 169.778 649.725 176.936 644.897 189.662C626.037 172.35 618.742 204.001 615 217.236C603.963 212.46 606.164 196.56 606.31 187.276C606.423 179.912 610.909 171.196 600.216 170.592C592.225 170.142 584.465 173.397 577.258 176.444C568.265 180.247 558.832 185.935 551.568 192.469L544 186.577C556.415 179.607 562.886 166.28 570.153 154.077C572.471 150.187 575.568 145.861 577.258 141.656C578.428 138.748 579.25 132.878 580.532 130.293C582.549 126.228 602.246 125.109 607.464 124.061C621.239 121.297 637.704 119.639 648.96 130.423Z" fill="#FF5678"/>
<path fill-rule="evenodd" clip-rule="evenodd" d="M645.821 220.754C650.909 220.494 655.975 221.63 661.063 221.135L647.811 209.593C645.859 213.02 645.717 216.919 645.821 220.754ZM525.104 141.656C511.934 141.714 495.869 148.329 486.72 157.99C481.873 163.11 477.867 169.986 473.768 175.738C471.018 179.598 468.333 183.323 464.996 186.715C460.129 191.658 461.522 192.788 467.006 196.51C468.741 193.258 477.943 175.87 481.8 176.652C487.66 177.842 476.342 196.208 475.106 198.496C471.445 205.266 465.533 214.722 468.189 221.862C471.694 231.287 466.612 236.658 462.199 244.689C466.833 244.823 467.289 243.016 468.887 239.063C470.937 233.983 473.177 229.739 477.514 226.227C480.874 223.507 486.368 222.362 487.946 219.078C489.898 215.019 488.673 207.004 488.831 202.488C489.071 195.626 489.089 179.405 496.65 176.357C504.572 173.163 518.816 176.173 526.56 178.539C525.593 172.492 522.543 168.543 522.585 161.823C522.63 154.789 524.567 148.513 525.104 141.656ZM423.928 253.872C430.817 251.692 437.348 249.393 444.436 247.907C451.853 246.351 452.349 244.571 456.53 238.21C459.7 233.388 463.546 229.63 462.648 223.725C462.072 219.937 459.998 218.092 460.622 213.832C461.008 211.192 462.24 208.31 463.13 205.799C464.222 202.719 466.485 199.226 461.224 199.073C458.319 198.989 458.177 200.522 456.211 203.095C452.583 207.848 448.407 212.165 444.547 216.723C437.841 224.637 430.73 233.06 423.245 240.386C415.005 248.446 407.893 258.169 402.567 268.489C401.583 270.395 395.602 281.62 398.154 283.821C400.497 285.843 413.53 281.128 415.907 280.577C426.164 278.196 437.807 277.346 447.498 273.021C452.436 270.817 463.332 268.187 467.232 264.778C470.857 261.608 470.694 253.931 468.59 249.464C462.702 253.127 420.132 266.948 423.928 253.872ZM552.088 190.876C558.963 184.666 567.088 179.686 575.576 175.995C583.168 172.694 592.599 169.014 601.046 169.587C611.569 170.3 607.172 178.777 607.134 185.995C607.084 195.574 602.887 209.372 614.324 214.341C618.058 201.079 625.927 169.717 644.778 187.095C649.596 174.343 666.779 170.027 678.878 167.685C676.686 161.242 670.024 155.41 665.408 150.575C659.631 144.525 655.071 137.435 649.284 131.5C637.853 119.78 617.144 123.543 602.671 126.465C597.84 127.439 583.835 128.663 581.495 132.211C580.027 134.436 580.847 139.872 579.759 142.593C578.26 146.341 575.699 149.816 573.644 153.278C566.148 165.911 558.522 178.626 545.692 185.86L552.088 190.876ZM594.041 258.934C587.253 261.538 582.261 265.894 576.241 269.56C568.941 274.007 560.381 278.172 553.831 283.664C551.434 285.673 550.087 289.143 546.778 289.368C543.9 289.564 539.515 286.221 536.963 285.052C532.683 283.087 528.595 280.11 524.293 278.359C520.759 276.919 519.194 277.214 516.136 274.415C514.42 284.625 483.211 275.082 476.664 274.925C470.607 274.782 462.297 275.5 456.66 277.934C451.289 280.254 447.09 285.359 442.492 288.837C436.19 293.607 430.176 298.431 425.535 305.033C419.169 314.086 428.773 311.523 435.178 310.977C449.798 309.727 464.02 313.209 478.114 316.57C490.712 319.573 503.154 323.176 515.213 328.046C521.995 330.786 529.133 333.304 535.512 336.864C538.875 338.742 544.329 343.338 548.188 342.014C551.727 340.799 555.253 330.654 557.398 326.604C561.565 318.738 565.948 311.006 570.25 303.218C578.376 288.507 586.424 273.918 594.04 258.934H594.041ZM510.518 453.636C514.701 451.234 521.52 451.881 526.145 450.874C531.372 449.736 536.627 447.884 541.611 445.951C546.658 443.995 551.427 441.994 556.039 439.546C558.148 438.427 560.959 437.325 562.909 435.772C564.479 434.52 565.051 432.194 566.499 431.059C570.278 428.096 571.389 429.955 571.895 424.239C572.445 418.03 568.961 414.514 564.625 409.867C560.742 405.709 555.699 402.115 550.821 399.189C548.663 397.896 546.358 396.439 544.156 395.205C540.824 393.335 536.36 390.225 534.612 394.24C538.252 395.169 539.055 399.82 535.769 401.49C533.964 402.408 531.232 401.06 529.197 402.035C526.056 403.541 523.034 407.745 520.345 410.007C511.519 417.437 503.078 420.224 491.525 420.821C467.386 422.065 442.108 419.312 418.433 415.735C412.34 414.813 406.257 415.811 400.107 415.591C394.123 415.377 387.884 414.069 382.002 413.058C370.672 411.112 358.73 409.51 347.576 406.647C334.086 403.183 320.551 398.703 307.886 392.901C295.738 387.334 282.007 378.137 268.362 377.428C274.185 383.129 282.91 385.325 289.914 389.081C295.638 392.148 304.59 394.118 308.207 399.173C310.561 402.463 311.742 408.506 313.521 412.364C315.488 416.634 317.302 420.971 319.123 425.304C320.952 429.664 322.857 434.026 324.343 438.516C325.262 441.302 325.658 447.078 327.83 448.983C331.295 452.023 342.891 453.373 347.56 454.383C356.279 456.273 366.223 456.021 375.115 456.152C378.79 456.206 382.494 456.707 386.005 456.775C390.936 456.869 390.466 456.015 390.395 451.735C390.355 449.165 390.407 444.489 393.845 446.606C396.188 448.049 394.576 454.439 394.142 456.71C413.77 458.665 434.249 459.648 453.784 458.994C472.995 458.35 491.542 455.873 510.518 453.636ZM599.159 408.58C602.623 383.71 606.843 358.425 611.567 333.877C616.341 309.071 622.081 284.49 628.537 259.777L615.744 256.719C615.585 261.926 613.824 266.449 613.074 271.632C612.037 278.786 610.057 285.733 608.871 292.864C606.618 306.418 602.444 319.681 598.767 332.899C595.019 346.374 593.767 360.257 590.323 373.8C587.485 384.957 586.035 397.247 584.45 408.717C580.605 436.544 575.127 464.425 570.958 492.266C567.048 518.368 566.656 545 566.881 571.346C567.019 587.431 569.473 603.47 569.345 619.576C569.313 623.558 569.648 627.526 569.855 631.502C570.001 634.306 568.495 642.081 569.772 644.43C570.581 645.917 574.056 647.289 575.286 649.354C577.231 652.622 577.641 656.528 580.766 659C583.299 648.784 582.102 635.3 581.549 624.873C581.013 614.827 582.053 604.444 582.258 594.243C582.658 574.233 583.718 554.517 584.744 534.497C585.869 512.542 589.067 490.053 592.191 468.263C595.031 448.45 596.927 428.286 599.159 408.58ZM506.459 96.69L502.339 96.307C502.545 99.201 501.933 103.887 503.973 105.397C505.519 106.541 508.649 106.166 510.523 106.531C516.665 107.732 523.783 108.736 529.88 106.549C532.25 105.699 530.728 104.368 533.99 104.921C537.92 105.589 536.485 106.211 537.62 108.662C538.494 110.554 538.944 113.774 539.936 116.045C541.264 119.085 543.956 124.525 542.805 128.035C541.687 131.447 537.515 132.478 535.741 136.342C534.421 139.215 534.733 143.391 534.048 146.555C533.134 150.775 531.978 154.979 531.468 159.277C530.825 164.692 531.045 171.045 537.754 171.885C543.981 172.665 548.433 170.665 552.608 166.13C560.583 157.473 569.688 145.253 574.373 134.363C574.92 133.091 576.267 130.968 576.079 129.606C575.709 126.912 575.546 129.639 574.692 127.768C573.877 125.979 572.598 124.356 571.846 122.371C569.139 115.217 567.225 107.788 566.139 100.216C565.647 96.796 565.482 93.418 565.567 89.965C565.594 88.785 566.302 85.245 565.88 84.438C565.45 83.62 563.206 83.243 562.507 82.431C561.21 80.926 558.983 76.677 557.547 75.551C555.78 74.166 551.827 75.263 551.109 72.509C549.961 68.103 577.133 60.926 564.439 55.046C554.961 50.656 540.424 72.848 537.11 55.386C536.536 52.361 537.63 48.256 536.303 45.483C534.837 42.42 530.845 41.274 528.057 39.783C524.499 37.883 520.905 35.929 517.447 33.847C515.076 32.42 511.659 28.631 509.134 28.284C510.128 33.427 508.223 38.525 508.191 43.658C513.659 42.178 517.422 42.147 522.819 44.778C525.389 46.03 535.073 53.137 530.167 56.555C526.192 54.205 521.94 52.168 517.509 50.785C515.761 50.24 513.579 49.499 511.72 49.461C507.405 49.374 508.013 49.825 506.393 53.079C504.831 56.213 505.167 64.387 501.738 66.389C498.193 68.458 500.928 65.561 497.9 66.229C496.173 66.612 494.292 67.896 492.711 68.621C494.877 70.971 499.248 73.118 500.684 75.729C502.78 79.536 502.053 87.409 502.381 91.574C505.124 90.592 508.011 90.552 510.792 89.823C513.405 89.136 517.03 86.166 517.302 90.533C517.607 95.399 509.914 96.691 506.46 96.691L506.459 96.69ZM542.159 224.816C542.374 220.611 542.607 216.407 543.075 212.219C543.391 209.407 546.061 201.251 544.552 198.781C542.911 196.094 537.41 195.923 534.762 195.278C529.688 194.041 524.821 193.028 519.663 192.211C514.92 191.461 510.45 191.301 505.67 191.084C500.464 190.849 499.174 189.468 498.023 195.204C497.119 199.714 495.906 204.413 495.737 209.031C495.579 213.366 496.887 217.129 492.592 220.051C502.025 220.051 514.311 211.651 522.919 219.161C535.233 229.901 513.804 232.995 508.154 235.366C512.851 237.649 519.824 239.442 522.035 244.656C524.517 250.501 520.915 252.986 515.406 253.454C515.924 255.707 517.908 257.17 518.499 259.879C519.364 263.85 516.557 262.535 520.139 265.608C524.855 269.652 534.564 272.356 540.348 274.932C541.702 275.538 543.073 276.107 544.458 276.638C546.626 278.566 548.225 278.199 549.259 275.535C552.226 273.657 554.867 269.467 557.499 267.03C563.355 261.606 569.818 256.847 576.776 252.93C573.891 251.736 570.441 254.436 567.673 253.122C565.436 252.06 566.279 250.127 564.939 248.68C565.476 246.793 564.909 246.103 563.238 246.61C562.436 246.705 561.624 246.557 560.906 246.186C559.506 244.451 558.877 243.883 558.784 241.204C558.686 238.362 560.332 237.359 560.964 235.084C563.018 233.684 562.971 232.309 560.824 230.961C559.949 229.545 559.452 227.927 559.38 226.264C558.972 219.994 564.694 217.468 569.058 214.152C561.244 213.293 561.542 204.128 566.948 200.122C572.553 195.968 584.418 197.669 591.195 198.606C592.605 198.799 596.411 200.617 597.836 199.458C598.71 198.748 598.093 192.743 598.133 191.683C598.225 189.277 598.81 186.408 598.426 184.014C597.624 179.002 599.324 181.526 595.716 181.387C587.129 181.054 576.194 188.55 568.639 192.084C560.183 196.04 554.749 196.648 554.661 206.457C554.576 215.744 551.971 224.998 550.835 234.137C550.338 238.129 549.983 258.866 542.678 251.213C539.846 248.245 541.661 243.681 541.871 240.02C542.157 234.983 541.986 229.867 542.159 224.816ZM69.768 535.71C73.948 536.452 80.758 534.052 85.318 533.8C93.292 533.362 101.505 532.602 109.317 530.943C115.429 529.644 122.394 528.501 125.69 522.585C128.637 517.298 129.678 510.676 131.265 504.906C132.108 501.843 134.282 497.4 134.282 494.231C134.282 490.11 133.726 490.921 129.429 488.666C123.989 485.813 118.698 481.836 112.831 480.217C111.056 479.87 109.281 479.531 107.503 479.197C105.205 477.864 103.907 478.52 103.606 481.163C101.362 483.528 100.047 487.889 98.164 490.656C93.872 496.965 88.774 501.264 82.116 504.902C70.133 511.447 58.968 516.498 46.134 520.778C39.061 523.136 32.539 526.445 25.626 529.045C20.087 531.128 12.443 531.761 8.189 536.398C3.389 541.628 10.767 543.531 14.868 547.067C18.228 549.965 18.294 550.63 22.89 549.223C26.315 548.175 29.35 546.171 32.64 544.812C43.904 540.159 57.538 537.062 69.768 535.71ZM327.21 618.68C323.012 617.771 318.813 616.864 314.615 615.957C318.744 623.665 327.427 634.943 321.195 643.863C318.865 647.196 314.991 648.147 311.53 649.837C307.34 651.884 303.473 654.505 299.513 656.944C283.183 666.999 266.587 677.195 249.38 685.824C254.767 687.562 263.05 688.764 268.597 687.25C275.057 685.485 281.039 681.434 287.671 679.663C299.57 676.488 312.095 673.783 324.183 672.154C334.064 670.823 358.798 673.831 357.597 658.971C356.456 644.861 348.029 631.401 345.521 617.453C339.367 618.82 333.497 618.581 327.21 618.68ZM577.449 392.86C582.234 369.374 585.093 345.49 590.737 322.172C593.553 310.54 595.537 298.748 598.287 287.112C599.567 281.699 600.535 276.233 601.781 270.83C603.044 265.36 605.761 260.312 606.381 254.657C601.809 255.788 600.751 266.262 599.365 270.202C596.823 277.43 594.049 284.376 590.782 291.296C585.588 302.296 580.077 312.909 574.218 323.574C568.04 334.823 561.515 345.64 553.797 355.912C551.261 359.288 547.82 361.932 546.185 365.635C543.615 371.459 542.535 378.401 540.08 384.462C541.809 385.34 546.275 385.558 548.395 385.977C552.339 386.755 555.102 387.447 558.89 389.322C565.563 392.626 571.17 396.542 575.628 402.486C576.748 399.435 577.041 396.089 577.449 392.86ZM391.452 572.053C391.372 549.434 391.052 526.622 391.423 504.171C391.525 497.937 392.033 491.211 392.937 485.024C393.504 481.136 396.845 472.87 394.649 471.006C392.773 469.412 382.867 470.462 380.436 470.406C375.722 470.296 371.022 470.086 366.298 469.731C366.298 478.114 369.573 487.633 371.095 495.925C372.513 503.66 373.679 511.438 374.85 519.209C377.384 536.036 378.105 553.095 380.857 569.967C383.349 585.265 386.637 600.499 388.451 615.795C389.446 624.191 391.46 632.113 393.024 640.505C393.842 644.88 396.821 662.903 400.574 664.675C401.367 658.21 398.126 650.403 397.545 643.865C396.947 637.116 396.483 630.321 395.388 623.536C394.103 615.571 393.454 607.409 392.961 599.346C392.661 594.411 392.569 589.492 392.142 584.561C391.834 580.983 390.48 575.561 391.452 572.053ZM509.327 269.592C509.483 267.129 503.107 267.228 501.921 264.397C499.512 258.648 505.001 259.683 508.377 259.088C507.174 255.891 484.638 257.055 489.889 248.425C493.531 242.437 507.342 251.602 511.034 245.912C513.459 242.175 506.857 241.66 504.239 241.286C500.299 240.721 491.016 242.546 491.321 237.433C491.706 231.009 509.752 226.575 514.814 224.688C514.253 220.289 492.534 226.542 489.391 228.325C482.277 232.361 476.826 239.603 475.782 247.651C474.566 257.015 479.315 264.39 488.668 266.688C492.568 267.646 495.45 267.752 499.058 269.193C501.433 270.14 509.117 272.502 510.744 270.113L509.327 269.592ZM636.827 211.347C637.187 207.348 640.554 199.82 636.675 197.193C631.248 193.516 628.999 199.575 627.769 203.215C626.265 207.659 619.943 218.537 625.471 221.306C626.757 221.95 632.851 221.2 633.926 220.776C636.921 221.556 637.886 220.435 636.828 217.409L636.827 211.347ZM504.37 534.283C504.03 523.353 508.923 510.213 511.696 499.509C514.84 487.38 516.496 475.01 519.826 463.014C516.122 463.461 512.383 463.825 508.722 464.568C503.728 465.583 503.638 465.423 503.997 470.322C504.533 477.679 503.831 484.892 503.451 492.247C502.691 506.972 504.544 521.939 503.311 536.571C504.411 536.851 504.762 536.087 504.37 534.283ZM642.646 247.842C654.646 249.679 666.146 253.482 677.064 258.594C683.083 261.411 689.712 264.439 696.438 265.564C703.91 266.814 711.835 266.228 719.466 266.71C722.156 266.88 729.228 268.187 731.851 266.605C734.449 265.037 734.246 262.381 734.368 259.214C734.683 251.069 730.996 243.094 727.681 235.786C724.837 229.516 722.687 224.729 718.274 219.336C712.607 212.409 707.672 204.934 702.364 197.704C698.364 192.254 694.32 186.883 690.241 181.44C687.324 177.542 687.462 176.201 683.064 176.637C678.734 177.067 674.374 179.627 670.295 180.983C664.241 182.997 656.91 184.103 651.389 187.322C647.82 189.404 647.661 189.787 647.702 193.42C647.742 196.804 648.832 200.932 650.856 203.58C655.062 209.075 662.033 211.984 668.016 214.726C671.476 216.311 674.466 218.56 677.548 220.748C680.867 223.106 687.564 224.495 690.104 227.183C697.499 235.011 684.037 233.463 680.276 233.228C672.159 232.718 664.086 232.795 655.909 232.788C646.984 232.783 638.13 232.368 629.331 232.658C624.177 232.828 618.264 230.214 614.925 225.857C613.309 223.747 612.678 221.751 610.565 219.561C607.794 216.694 605.385 213.673 602.014 211.454C596.499 207.824 586.478 205.769 579.914 207.124C582.264 207.452 593.32 211.216 588.453 215.947C587.86 216.523 580.749 216.9 579.203 217.61C576.413 218.891 572.897 220.753 571.261 223.458C576.025 222.66 593.693 221.736 584.68 230.877C582.468 233.121 576.115 235.36 581.52 237.746C582.762 238.294 585.247 237.518 586.846 238.012C589.221 238.748 591.163 240.715 593.389 241.764C599.702 244.742 608.404 246.578 614.992 245.926C624.102 245.022 633.597 246.649 642.646 247.842ZM401.046 523.267C401.356 536.397 400.883 549.607 401.163 562.797C401.463 576.885 403.27 590.691 404.131 604.637C404.905 617.135 406.592 629.396 407.963 641.835C408.752 649 409.661 655.851 410.873 662.962C412.009 669.616 412.203 675.479 404.248 677.268C389.04 680.69 386.677 658.811 383.738 649.592C379.35 635.834 376.536 621.391 374.362 607.128C370.315 580.566 364.933 554.373 362.833 527.586C361.54 511.091 359.665 494.765 358.601 478.285C358.393 475.055 359.216 470.08 356.381 468.641C354.674 467.778 349.976 467.771 347.823 467.144C341.825 465.399 336.291 462.83 330.438 460.164C334.592 481.884 335.964 503.497 339.08 525.408C340.733 537.034 343.897 549.081 346.639 560.525C349.479 572.382 350.111 585.15 353.389 596.749C354.832 601.862 356.055 603.945 353.959 609.192C351.389 615.634 353.094 617.175 356.317 623.502C362.246 635.14 366.772 648.875 365.767 661.996C364.947 672.712 356.851 678.321 346.821 681.213C334.275 684.828 321.138 684.401 308.516 688.507C297.52 692.083 286.346 694.726 275.668 699.447C271.362 701.351 267.271 703.61 262.49 703.96C255.932 704.436 251.51 700.63 245.317 699.837C241.446 699.343 235.777 701.19 233.547 697.132C231.78 693.915 233.781 686.895 236 684.305C242.234 677.028 254.719 670.687 263.126 666.392C272.816 661.443 282.192 655.248 291.17 648.86C296.612 644.987 302.162 641.271 307.6 637.391C311.196 634.823 312.563 634.807 312.196 630.727C311.903 627.474 310.436 624.318 310.18 620.987C309.984 618.435 310.878 614.957 309.672 613.291C308.785 612.063 305.455 611.196 304.146 610.266C299.358 606.872 298.27 602.673 296.096 597.51C291.157 585.783 285.483 574.386 280.714 562.565C270.474 537.185 264.226 510.497 255.737 484.598C247.065 458.139 239.31 430.363 234.534 402.912C228.143 404.856 222.111 413.462 217.021 417.721C210.145 423.476 203.099 429.041 196.356 434.954C185.303 444.646 174.111 454.072 164.977 465.68C160.577 471.27 156.973 477.287 152.989 483.16C150.688 486.553 148.542 490.394 146.049 493.622C145.649 494.14 145.639 495.204 145.207 495.645C144.257 496.614 142.445 495.323 141.837 495.962C138.081 499.889 138.13 511.04 136.96 516.222C135.347 523.364 133.536 531.575 127.96 536.497C119.347 544.099 103.461 545.277 92.56 545.672C78.57 546.178 65 550.077 51.726 554.264C45.536 556.216 39.506 558.501 33.292 560.396C29.718 561.489 25.641 563.665 21.824 563.246C17.221 562.742 13.586 558.869 10.214 555.99C4.821 551.385 -0.173001 546.846 0.000998824 539.29C0.194999 531.292 4.528 525.256 11.353 521.283C24.548 513.602 39.306 508.679 53.529 503.371C58.979 501.336 63.645 499.084 68.857 496.345C76.22 492.473 84.697 489.313 91.23 484.201C93.156 482.692 100.236 478.071 100.84 475.688C100.919 475.378 99.15 471.738 99.142 471.161C99.124 469.676 100.003 468.068 100.544 466.797C103.947 458.797 109.655 451.093 114.019 443.549C122.011 429.73 130.034 415.839 139.3 402.843C157.777 376.932 178.533 351.561 200.935 328.943C211.856 317.916 221.294 305.409 232.368 294.535C236.756 290.228 241.388 286.72 246.794 283.925C252.821 280.808 259.586 280.197 266.494 279.245C283.234 276.941 297.214 281.893 312.931 286.202C327.788 290.275 342.662 293.712 357.603 297.954C374.011 302.613 390.251 307.082 406.607 312.16C415.347 314.873 424.337 316.538 433.118 319.142C437.346 320.394 453.331 328.244 456.856 325.665C445.751 320.455 434.375 315.705 422.494 312.56C418.995 311.634 416.76 312.659 416.89 308.641C416.961 306.45 419.424 303.491 420.31 301.688C422.433 297.369 424.837 293.149 426.914 288.818C419.382 290.957 399.137 298.358 393.461 290.707C387.521 282.697 392.481 266.994 396.203 259.152C405.921 238.681 422.449 221.598 438.553 206.166C442.036 202.83 449.545 198.473 451.402 194.223C451.966 192.931 450.738 191.033 452.012 189.355C452.769 188.356 455.811 187.674 457.027 186.598C461.455 182.678 464.987 174.43 468.047 169.291C471.252 163.909 474.14 158.081 478.167 153.251C484.753 145.356 491.553 136.986 502.219 135.139C507.449 134.234 513.005 134.717 518.019 132.91C524.081 130.725 529.842 127.283 535.964 125.02C534.445 121.897 533.214 116.932 530.267 116.591C527.43 116.261 523.269 118.701 520.022 118.683C515.279 118.657 511.231 117.899 506.654 116.995C501.588 115.993 499.92 116.175 498.074 110.68C496.137 104.924 496.624 98.238 496.641 92.26C496.649 89.337 497.228 85.71 496.979 82.843C496.606 78.523 495.766 78.356 492.379 75.608C488.147 72.175 482.93 67.632 488.114 61.667C490.915 58.443 496.671 60.95 499.152 57.487C501.679 53.959 501.557 45.097 502.327 40.954C494.537 44.784 497.393 30.468 497.392 27.024C497.391 22.011 494.032 12.997 498.867 8.82799C501.114 6.89199 502.783 8.493 505.353 7.381C508.284 6.111 510.13 2.781 513.249 1.49C519.448 -1.077 525.778 2.01399 532.143 1.50299C539.443 0.918993 546.614 -0.210004 553.955 0.961996C557.433 1.515 558.897 2.836 561.84 4.317C564.67 5.741 567.541 6.131 570.615 7.047C573.35 7.863 575.748 8.27599 577.595 10.659C579.057 12.545 578.462 15.717 579.937 17.342C581.392 18.944 584.271 18.712 586.005 20.613C587.671 22.439 588.667 25.456 589.532 27.727C590.702 30.787 590.838 31.937 592.897 34.385C594.692 36.522 597.277 38.241 598.774 40.679C602.303 46.425 602.394 54.735 601.267 61.199C600.884 63.4 597.694 69.089 598.193 70.963C598.668 72.746 601.66 72.277 603.015 73.404C604.185 74.379 605.215 78.72 606.139 78.984C608.133 79.557 610.593 75.618 612.105 75.027C614.731 74 615.83 72.947 617.285 76.817C618.363 79.69 616.861 83.589 616.07 86.33C615.064 89.82 613.952 94.023 611.286 96.662C608.152 99.764 605.643 98.068 602.185 99.739C597.002 102.243 598.531 110.073 592.154 112.311C586.077 114.443 579.382 107.735 574.784 104.651C575.737 112.137 579.321 119.351 577.601 127.023C591.578 121.547 605.401 113.775 620.634 112.063C628.401 111.189 636.248 110.155 643.58 113.379C652.162 117.153 657.42 125.478 663.229 132.395C674.146 145.395 685.348 158.03 695.826 171.449C705.437 183.758 713.54 198.02 724.119 209.545C734.846 221.233 742.941 240.195 741.766 256.38C741.661 257.841 740.529 261.16 740.706 262.735C740.844 263.942 741.941 265.472 741.924 266.445C741.864 269.72 740.782 271.605 737.66 273.422C732.249 276.574 724.185 278.169 718.069 278.952C709.943 279.991 699.992 280.102 691.862 278.992C683.478 277.846 676.108 273.153 668.398 270.317C661.634 267.827 654.842 266.274 647.735 264.687C643.815 263.81 639.475 261.385 637.053 263.732C634.828 265.889 634.366 276.957 633.848 279.9C628.225 311.799 621.543 342.617 615.625 374.353C608.918 410.325 604.332 446.283 599.667 482.56C595.427 515.537 594.042 548.886 593.093 581.832C592.641 597.548 592.575 613.095 592.671 628.824C592.725 637.632 597.128 667.032 584.071 668.157C576.398 668.821 570.26 657.82 568.204 651.821C565.115 642.807 563.506 633.101 563.014 623.632C562.017 604.463 560.711 585.28 559.937 566.104C559.1 545.328 560.165 524.169 561.873 503.462C563.592 482.616 567.923 462.074 569.251 441.197C565.266 446.884 563.991 447.953 557.353 450.429C550.407 453.023 543.725 456.09 536.717 458.508C534.332 459.33 530.611 459.845 528.657 461.192C525.05 463.676 527.419 460.857 526.267 465.692C525.037 470.858 524.806 477.059 524.479 482.367C522.943 507.277 516.042 532.01 512.859 556.788C512.091 562.771 513.188 588.168 502.891 580.164C494.962 574 495.119 554.639 493.991 545.57C492.49 533.481 493.326 521.052 493.564 508.89C493.834 495.039 494.067 480.511 497.372 466.987C491.458 465.975 483.233 468.732 477.282 469.196C472.127 469.596 466.992 469.852 461.866 470.134C449.645 470.804 437.056 471.34 424.628 471.1C422.366 471.056 407.585 468.987 405.696 470.655C405.082 471.197 404.895 478.649 404.78 479.56C404.345 482.984 403.755 486.405 403.315 489.81C401.911 500.696 400.644 512.385 401.046 523.267Z" fill="black"/>
<path fill-rule="evenodd" clip-rule="evenodd" d="M620.546 626.718C629.874 630.363 639.773 631.686 649.179 635.007C657.589 637.976 665.398 641.967 673.678 644.984C674.162 641.143 674.42 634.639 673.001 631.019C670.993 625.892 665.708 625.767 660.504 623.941C647.838 619.497 634.515 618.561 621.941 613.369C624.094 617.513 623.133 622.999 620.546 626.718ZM781.556 613.313C761.412 613.904 742.161 618.592 722.308 621.491C712.647 622.901 702.977 624.16 693.308 625.476C689.586 625.982 682.804 625.386 680.099 628.606C677.857 631.276 680.314 640.384 679.319 644.296C683.39 644.596 690.619 640.792 695.039 640.162C701.919 639.184 708.711 637.813 715.664 637.377C726.676 636.683 737.495 636.093 748.488 634.867C759.668 633.621 770.485 631.305 781.753 630.459C787.23 630.047 789.433 631.074 789.756 625.291C789.883 623.031 790.193 619.246 789.559 617.016C790.572 614.276 789.673 612.945 786.862 613.023C785.09 612.821 783.296 612.919 781.556 613.313ZM742.595 594.858C748.043 594.348 753.513 593.614 758.975 593.308C760.082 593.244 765.699 593.583 766.616 592.553C767.915 591.097 766.468 585.769 766.23 584.121C765.42 578.516 764.525 575.256 758.41 575.244C753.25 575.231 747.908 576.323 742.768 576.826C719.435 579.113 696.22 580.078 673.144 584.421C674.549 590.403 676.144 596.574 674.464 602.691C685.534 603.262 697.686 601.132 708.504 598.947C719.562 596.714 731.294 595.606 742.595 594.858ZM705.665 538.54C697.328 538.577 688.517 542.249 680.291 541.43C680.168 542.96 682.801 541.69 683.528 543.123C685.081 543.127 685.622 543.633 685.148 544.646C685.177 545.336 684.824 545.741 684.088 545.858L683.001 545.952C681.411 546.004 681.149 547.076 682.22 549.173C681.76 551.771 682.45 555.071 682.55 557.678C697.333 555.667 711.695 553.574 726.583 552.676C733.611 552.253 740.634 552.254 747.653 551.676C755.377 551.039 763.808 552.404 771.358 550.958C775.395 550.184 774.972 550.238 774.678 544.988C774.498 541.8 774.565 538.014 771.968 535.688C767.632 531.803 757.758 534.048 752.573 534.185C736.955 534.598 721.073 536.049 705.665 538.54ZM714.198 613.5C736.531 611.473 758.696 607.03 781.155 607.03C779.567 605.444 776.108 605.035 774.132 604.169C771.878 603.183 769.752 601.082 767.549 600.219C763.129 598.489 758.633 600.893 754.094 601.932C743.145 604.439 731.911 604.524 720.944 606.984C709.607 609.525 698.122 611.869 686.575 613.161C681.077 613.776 675.178 615.023 669.745 613.571L668.421 612.626C667.946 610.604 666.628 610.064 664.466 611.006C661.72 610.483 658.224 611.158 655.459 611.227C655.347 612.331 665.559 615.794 667.507 616.652C672.199 618.718 675.38 620.23 680.391 619.345C691.674 617.352 702.772 614.972 714.198 613.5ZM635.638 548.208C636.51 551.61 640.175 550.062 643.33 550.438C647.565 550.938 651.778 552.4 655.88 553.501C663.329 555.503 670.78 557.477 678.197 559.593C677.905 556.597 678.567 549.778 676.985 547.12C675.323 544.334 667.448 543.113 663.781 542.263C654.536 540.124 644.661 541.341 635.271 541.791C635.437 543.928 635.561 546.065 635.638 548.208ZM724.434 569.493C733.205 568.75 741.986 568.173 750.782 567.863C760.839 567.511 753.529 565.904 753.317 559.771C740.099 561.879 726.765 562.295 713.588 564.097C702.672 565.592 689.668 569.494 678.533 567.397C673.281 566.41 667.919 566.029 662.332 565.47C657.062 564.943 652.088 562.488 646.882 561.878C641.037 561.193 635.066 564.478 629.252 565.346C626.788 565.714 626.215 567.386 625.052 564.419C623.845 561.342 627.301 558.828 628.662 556.988C630.252 554.839 629.591 558.328 630.474 554.972C630.721 554.032 630.051 551.669 629.928 550.656C629.616 548.095 628.811 545.316 628.686 542.76C628.57 540.412 628.55 536.828 631.099 535.458C632.654 534.622 633.757 535.841 635.113 535.605C645.698 533.765 658.148 533.613 668.883 535.39C680.52 537.315 690.536 532.218 702.006 530.15C715.462 527.726 729.058 527.363 742.63 526.338C754.235 525.463 775.437 520.921 779.858 535.743C781.11 539.943 782.934 551.505 779.566 555.078C775.146 559.771 764.913 558.273 759.198 559.493C760.053 561.924 762.598 563.578 761.718 566.473C769.726 566.853 771.142 574.417 772.397 581.479C773.695 588.786 771.163 591.69 778.146 595.495C787.878 600.798 798.188 606.153 797.997 618.782C797.902 625.132 797.191 634.708 790.672 638.002C784.294 641.225 773.908 640.68 766.879 641.85C753.267 644.117 739.607 646.776 725.912 648.137C711.33 649.587 696.505 650.776 681.898 651.423C673.94 651.778 667.065 652.98 659.378 650.302C651.822 647.669 644.43 645.746 636.633 643.791C628.936 641.863 605.373 639.266 612.239 626.102C613.337 623.996 617.093 622.322 617.699 620.33C618.677 617.117 615.373 614.61 615.511 611.707C615.763 606.395 621.756 605.729 625.894 605.729C618.801 601.293 628.299 596.041 628.243 592.275C628.143 585.64 619.891 581.333 619.424 575.771C618.289 562.235 661.228 576.329 667.837 579.257C662.75 586.8 639.15 580.273 632.121 579.129C633.08 581.648 633.997 583.912 634.274 586.491C634.499 588.592 633.696 590.994 634.431 593.109C635.591 596.453 635.551 595.813 639.658 596.725C642.696 597.399 645.7 598.178 648.728 598.893C653.38 599.99 660.697 602.935 665.306 602.774C669.349 602.634 668.55 603.887 669.291 599.397C669.691 596.984 669.01 594.419 668.603 592.055C667.754 587.101 666.513 582.412 670.839 578.858C674.964 575.468 683.659 573.854 688.719 572.658C699.949 570.006 712.912 569.356 724.434 569.493Z" fill="black"/>
<path fill-rule="evenodd" clip-rule="evenodd" d="M777.875 484.936C765.678 482.892 753.285 482.389 740.945 483.008L742.953 492.167C754.513 489.19 766.243 487.445 777.875 484.936ZM678.698 508.624C673.808 508.266 677.21 510.454 678.418 513.655C679.902 517.588 679.584 522.561 679.925 526.701C694.236 521.244 710.887 518.051 726.103 516.213C733.319 515.343 740.64 515.093 747.896 514.721C750.041 514.611 757.786 515.509 759.356 514.066C760.521 512.993 759.704 507.073 758.584 505.766C752.494 498.667 728.952 504.796 720.434 505.433C706.47 506.476 692.76 508.971 678.698 508.624ZM699.024 489.6C711.696 490.817 723.932 490.701 736.604 492.6C735.644 484.545 736.792 482.489 727.654 482.061C719.511 481.681 711.394 481.373 703.289 481.377C685.062 481.387 666.879 481.039 648.631 481.039V489.225C665.507 487.497 682.115 490.618 699.024 489.6ZM638.089 519.703C646.086 519.669 653.645 522.686 661.643 523.468C666.43 523.936 664.926 524.53 668.247 526.934C673.419 530.678 674.909 528.684 674.26 523.596C672.063 506.386 650.274 510.246 637.718 509.289C638.543 513.393 636.646 516.873 633.852 519.703H638.089ZM724.531 497.608C713.028 497.794 701.511 498.448 690.089 498.209C684.976 498.102 678.352 497.089 673.341 497.961C669.671 498.599 666.6 500.469 662.574 501.164C668.488 504.349 671.486 502.197 677.704 501.472C683.916 500.749 690.22 500.762 696.458 500.385C706.701 499.765 717.62 497.311 727.712 497.979C727.896 496.557 726.836 496.433 724.531 497.608ZM633.295 534.88C628.017 534.868 635.279 528.866 636.232 528.27C630.389 528.27 628.974 524.766 630.667 519.136C632.262 513.833 633.442 515.456 629.429 511.04C626.408 507.715 625.951 505.265 629.512 501.547C633.136 497.765 640.476 498.835 643.687 495.713C649.154 490.399 642.099 479.816 649.674 475.745C654.794 472.995 663.049 473.335 668.702 472.754C674.166 472.192 679.822 472.084 685.322 472.009C697.312 471.845 709.768 473.856 721.705 474.963C726.058 475.365 730.95 477.123 735.238 477.127C739.611 477.132 744.191 476.157 748.706 476.27C753.955 476.402 759.011 476.015 764.424 476.876C768.571 477.537 778.254 477.884 781.424 480.967C791.986 491.241 766.939 495.959 762.629 497.113C767.015 501.918 766.833 508.27 766.172 514.319C768.26 514.319 771.859 513.41 772.939 515.752C774.282 518.659 769.314 519.415 768.139 519.754C761.381 521.706 753.472 521.171 746.509 521.88C732.585 523.297 718.83 524.114 705.052 526.752C698.337 528.037 691.662 529.628 684.952 530.879C683.794 531.096 682.629 531.269 681.459 531.4C679.663 531.247 679.083 532.373 679.716 534.786C677.853 535.696 670.909 533.429 668.762 533.082C656.47 531.088 645.473 531.916 633.295 534.88ZM881.514 654.245C873.586 660.485 866.216 666.372 857.63 671.793C863.7 671.603 883.884 661.924 881.514 654.245ZM878.418 644.076C874.091 640.358 869.792 640.738 864.436 639.611C859.504 638.573 854.711 636.786 849.789 635.596C845.926 634.663 842.103 633.401 838.254 632.519C832.819 631.273 832.283 632.645 827.284 635.492C809.558 645.595 789.721 652.544 771.05 660.744C776.532 665.57 788.864 665.778 795.715 667.317C800.718 668.439 805.478 669.975 810.269 671.752C814.731 673.409 821.919 677.218 826.624 677.345C830.595 677.452 833.824 673.544 837.244 671.439C841.741 668.669 846.219 665.947 850.752 663.246C860.345 657.53 869.314 650.526 878.418 644.076ZM798.308 684.996C796.261 683.028 790.102 683.114 787.536 682.513C782.482 681.333 777.502 680.105 772.38 679.218C764.069 677.78 750.94 677.137 750.037 666.354C749.285 657.394 760.112 655.267 766.445 652.231C775.968 647.664 785.685 643.45 795.449 639.422C804.604 635.648 813.893 632.455 823.215 629.193C825.033 628.557 826.509 628.645 827.993 627.189C829.164 626.041 828.803 623.812 830.086 622.612C833.024 619.864 836.836 621.31 840.368 622.015C848.387 623.614 856.713 625.714 864.358 628.681C872.303 631.764 879.409 632.408 881.318 641.415C885.38 639.509 888.435 639.232 887.949 644.832C887.807 646.478 886.612 648.268 886.325 649.965C885.903 652.467 886.642 655.105 886.225 657.613C884.705 666.733 872.405 673.49 864.785 677.072C855.388 681.487 843.263 688.012 832.771 688.874C821.591 689.793 809.407 685.402 798.308 684.997" fill="black"/>
<path fill-rule="evenodd" clip-rule="evenodd" d="M656 533.677L646 533.74C649.326 533.115 652.66 533.108 656 533.677ZM461 181L458 186C458.34 183.852 459.103 182.011 461 181ZM662 533.726L656 533.67C657.965 533.123 660.045 533.142 662 533.726ZM741.585 250C741.528 248 741.473 245.998 741.415 244C741.474 246.002 741.529 248 741.585 250ZM401.562 552L401.438 547C401.481 548.669 401.52 550.334 401.562 552ZM456 470.498C457.338 470.498 458.673 470.5 460 470.503C458.66 470.503 457.33 470.5 456 470.498ZM554.345 1.14702L550.105 0.608021C551.505 0.932021 553.041 -0.268981 554.345 1.14702ZM731 523.531C732.005 523.51 733.007 523.488 734 523.469C732.994 523.491 731.997 523.511 731 523.531ZM391.49 281C391.498 282.336 391.504 283.671 391.51 285L391.49 281ZM619.743 573C619.707 574.335 619.672 575.67 619.633 577C619.086 575.629 619.148 574.3 619.743 573ZM757 567.241C756.131 568.121 755.014 567.601 754 567.657L757 567.241ZM638 535.247C636.68 535.871 635.345 535.957 634 535.29L638 535.247ZM401.542 523C401.515 521.998 401.487 520.996 401.458 520C401.485 521.004 401.514 522.002 401.542 523ZM751 476.26C749.664 476.952 748.332 476.865 747 476.253L751 476.26ZM688 650.528C688.67 650.508 689.339 650.49 690 650.472C689.327 650.492 688.664 650.51 688 650.528ZM582 667.48C582.67 667.494 583.34 667.505 584 667.52C583.328 667.508 582.664 667.494 582 667.48ZM332 618.469C330.33 618.489 328.66 618.509 327 618.531L332 618.469ZM469 419.538C467.329 419.512 465.659 419.485 464 419.461C465.675 419.488 467.338 419.514 469 419.538ZM340 618.51L336 618.49C337.342 618.498 338.67 618.504 340 618.51ZM391.469 507C391.489 505.665 391.511 504.332 391.532 503L391.469 507ZM615 245.655L619 245.345C617.666 245.447 616.334 245.552 615 245.655ZM503.692 531C505.878 536.42 504.651 532.582 504.707 533.833C502.845 534.083 502.506 533.138 503.692 531ZM412 415.555C410.998 415.519 409.993 415.483 409 415.445C410.01 415.481 411.003 415.517 412 415.555ZM576.388 400L576.612 397C576.536 398.002 576.462 399 576.388 400ZM583.389 563L583.612 560C583.537 561.002 583.462 562 583.389 563ZM577.342 396C577.447 394.999 577.554 393.999 577.658 393L577.342 396ZM585.578 531C585.223 529.966 585.049 528.947 585.734 528L585.578 531ZM568.543 512L568.457 515C568.487 513.997 568.515 512.998 568.543 512ZM639 247.38C640.342 247.46 641.816 246.816 643 247.76L639 247.38ZM432 458.239L436 458.257C434.661 458.901 433.328 458.964 432 458.239ZM457 458.661C458.334 458.555 459.667 458.447 461 458.339C459.666 458.447 458.334 458.555 457 458.661ZM570.466 635C570.489 636.001 570.512 637.002 570.533 638C570.512 636.996 570.489 635.999 570.466 635ZM591.363 478C591.455 477 591.547 475.998 591.637 475L591.363 478ZM637.385 211C637.463 209.998 637.539 208.998 637.615 208L637.385 211ZM542.471 125C542.49 126 542.508 127.003 542.529 128L542.471 125ZM263 687.72C264.335 687.032 265.667 687.228 267 687.725L263 687.72ZM762 592.62L767 592.24C765.445 593.217 763.667 592.494 762 592.62ZM722 612.659L726 612.342C724.667 612.447 723.333 612.552 722 612.659ZM734 577.491C732.997 577.498 731.994 577.505 731 577.509C732.007 577.501 733.004 577.496 734 577.491ZM759 632.582L763 632.244C761.756 633.118 760.35 632.615 759 632.582ZM706 538.495C705.33 538.5 704.661 538.503 704 538.505L706 538.495ZM682 541.281C681.664 542.103 679.897 541.998 680.005 541.154L682 541.281ZM772 550.3C773 550.284 774 550.268 775 550.25C774.012 550.957 773.01 550.858 772 550.3ZM734 535.486C733.33 535.496 732.661 535.506 732 535.514L734 535.486ZM722 636.709C723.336 636.221 724.671 636.054 726 636.721L722 636.709ZM719.88 498.868L718 498.218C720.333 498.188 722.667 498.16 725 498.132C725.005 498.132 720.149 498.889 719.88 498.868ZM702 481.502L697 481.498C698.673 481.5 700.337 481.502 702 481.502ZM639 519.727C640.664 519.061 642.33 519.191 644 519.709L639 519.727ZM719 490.337C720.668 490.446 722.335 490.554 724 490.664C722.334 490.554 720.666 490.446 719 490.337ZM702 498.563L700 498.438C700.672 498.478 701.336 498.521 702 498.563ZM689 498.527C688.33 498.508 687.66 498.489 687 498.473L689 498.527ZM725 497.597C725 497.857 728.012 496.542 728 497.764L725 497.597ZM359 434.076C360.083 429.657 359.788 426.199 363.644 429.023C365.761 430.573 369.251 438.436 368.986 441.099C368.66 444.384 367.162 445.693 364.07 444.648C360.516 443.444 359.106 437.382 359 434.076ZM553.83 407.247C562.786 407.247 558.878 416.778 551.413 416.991C547.983 417.09 543.048 416.413 544.16 411.821C544.754 409.371 553.456 406.066 553.83 407.247ZM457.774 426C464.239 429.128 455.144 442.863 449.269 439.463C441.747 435.111 455.116 427.96 457.774 426ZM442.044 439C444.16 441.308 453.696 449.133 448.44 452.28C441.976 456.15 437.056 443.376 442.044 439ZM333.678 433C331.575 428.933 334.468 418.29 340.891 420.235C347.353 422.194 337.234 431.92 333.678 433ZM476.34 435.344C480.533 433.656 479.734 438.65 480.368 440.261C481.086 442.091 484.778 446.549 483.852 448.497C482.478 451.387 479.192 449.545 477.409 447.669C474.282 444.379 474.504 439.1 476.34 435.344ZM412.44 439.973C408.946 439.973 400.603 429.897 405.505 428.206C411.589 426.108 416.675 440.713 412.44 439.973ZM533.208 424C536.408 424.79 540.645 433.851 535.821 434.902C530.481 436.067 529.528 426.506 533.208 424ZM513.803 441C511.293 436.166 510.674 425.818 516.803 434.124C518.131 435.923 519.501 435.195 518.819 438.163C518.223 440.754 515.844 441 513.803 441ZM381.585 416C384.143 419.85 383.388 431.926 378.042 424.784C375.768 421.748 377.334 416.144 381.585 416ZM510.188 53.098C515.152 51.816 516.342 63.519 513.448 64.809C509.394 66.615 509.902 55.055 510.188 53.098ZM824.156 647.65C819.549 647.38 813.096 646.123 820.074 642.854C824.501 640.782 831.084 640.638 835.759 641.488C838.982 642.074 843.817 644.745 838.899 648.208C836.021 650.233 827.656 647.748 824.156 647.649M818.993 656L815 655.55C816.068 653.612 819.171 653.205 818.993 656Z" fill="black"/>
</svg>
